<?xml version="1.0" encoding="UTF-8" standalone="no"?>
<svg
   xmlns:dc="http://purl.org/dc/elements/1.1/"
   xmlns:cc="http://creativecommons.org/ns#"
   xmlns:rdf="http://www.w3.org/1999/02/22-rdf-syntax-ns#"
   xmlns:svg="http://www.w3.org/2000/svg"
   xmlns="http://www.w3.org/2000/svg"
   version="1.1"
   id="svg2"
   viewBox="0 0 2364.7278 2364.7279"
   height="667.37878mm"
   width="667.37872mm">
  <defs
     id="defs4" />
  <metadata
     id="metadata7">
    <rdf:RDF>
      <cc:Work
         rdf:about="">
        <dc:format>image/svg+xml</dc:format>
        <dc:type
           rdf:resource="http://purl.org/dc/dcmitype/StillImage" />
        <dc:title></dc:title>
      </cc:Work>
    </rdf:RDF>
  </metadata>
  <g
     transform="translate(1676.9092,377.45399)"
     id="layer1">
    <g
       transform="matrix(0.99802494,-0.06281892,0.06281892,0.99802494,-51.540329,-29.477062)"
       id="g4225">
      <path
         id="path4223"
         d="M 647.63788,804.90997 A 1142.1832,1142.1833 0 0 1 -494.54535,1947.0933 1142.1832,1142.1833 0 0 1 -1636.7286,804.90997 1142.1832,1142.1833 0 0 1 -494.54535,-337.27338 1142.1832,1142.1833 0 0 1 647.63788,804.90997 Z"
         style="fill:#ffffff;fill-opacity:1;fill-rule:nonzero;stroke:#000000;stroke-width:80.3578949;stroke-linecap:round;stroke-linejoin:round;stroke-miterlimit:4;stroke-dasharray:none;stroke-dashoffset:0;stroke-opacity:1" />
      <path
         style="fill:#000000;fill-opacity:1;stroke:#000000;stroke-width:32;stroke-linecap:round;stroke-linejoin:round;stroke-miterlimit:4;stroke-dasharray:none;stroke-opacity:1"
         d="m 26.395845,1361.7212 c -107.161982,-14.9037 -462.763195,-177.7338 -709.667485,-152.2665 -82.65293,10.8384 -153.60009,37.3591 -228.90696,51.558 186.36683,-140.8849 476.26155,-109.4049 671.46534,-40.5238 151.02072,39.7667 327.65877,126.9825 462.28062,67.7519 88.66758,-41.2012 94.48867,-121.1122 90.292,-235.6316 -4.19667,-114.5194 1.13107,-299.55739 -7.5518,-436.67818 C -57.874826,1181.7442 -57.040336,506.92689 18.493955,555.46378 12.643575,856.8306 75.11072,825.78557 182.0412,672.94968 288.97168,520.11378 341.49256,404.53638 373.56206,505.66073 c 6.7824,139.5008 2.97449,205.29747 10.74383,499.56217 7.76933,294.2648 -76.74672,413.9026 -357.910045,356.4983 z M -1042.1614,1350.043 c -45.2319,71.9216 -2.4271,-89.7798 24.394,-167.8151 -138.9999,34.3841 -202.9115,-103.3348 -235.1834,-169.4944 -32.272,-66.1596 -45.1518,-128.2989 -62.8349,-206.34156 -12.7348,48.94036 3.9662,155.25266 24.9232,255.04476 20.957,99.7921 33.1505,138.9175 -15.4286,149.5148 -48.5791,10.5973 -52.9986,-73.5066 -73.2893,-171.6472 -20.2907,-98.1405 -83.5845,-243.34409 -114.1143,-360.37277 -3.2636,-44.4713 36.9882,-74.7847 65.7369,-25.63714 54.8282,180.54054 49.9081,225.53461 65.8778,72.63324 116.7163,-642.72921 549.15894,-748.56786 909.09911,-811.69213 -453.78041,87.59562 -701.41781,284.93892 -812.67071,668.7335 -47.1037,163.9914 11.4343,355.176 102.6089,508.9536 38.684,58.5541 145.2753,90.3053 191.43349,-21.6906 -66.72199,-224.187 72.98067,-404.96984 172.56592,-353.54351 44.07929,-93.01127 172.85168,-267.0831 257.1273,-260.04942 37.22479,6.01563 -47.216,33.25217 -105.48956,112.23043 -35.45605,49.72936 -47.33297,65.76323 -109.1492,166.50195 228.27559,151.05615 -3.61519,513.96585 -172.592,364.44905 -13.72241,43.1355 -67.78275,178.3009 -113.01465,250.2225 z m 266.21413,-577.36687 c -72.30715,116.40797 -96.66047,165.78957 -141.98158,286.57347 161.4644,159.7126 318.94989,-217.1171 141.98158,-286.57347 z m -171.26862,246.65017 c 21.39134,-78.3539 82.12341,-198.97402 124.14067,-257.93907 -70.60367,-44.60459 -160.47108,118.19237 -124.14067,257.93907 z m 385.15708,44.4764 c -61.52115,-71.1509 -81.18113,-198.7531 -104.52995,-287.88321 -5.70918,-26.79811 22.18068,-44.93577 35.39698,-42.9213 6.91438,2.46878 16.56039,8.30739 23.86683,56.35624 21.61806,-64.02744 156.78247,-127.09567 168.76891,-76.37043 -102.12548,13.23014 -123.05776,62.68322 -153.87144,136.6617 22.43236,142.0721 43.06094,134.6122 65.41308,177.9306 -7.73128,26.0795 -22.67168,38.6258 -35.04441,36.2264 z m 146.02993,-280.66938 c 4.98675,-153.90092 12.26866,-318.30979 18.02139,-431.15498 5.75273,-112.84519 53.44662,-152.58183 49.28845,-35.94268 -4.15817,116.63915 -7.7828,262.99271 -13.54775,396.69827 52.01505,-39.67366 114.06071,-73.21207 180.6089,-78.25595 93.05141,0.23419 156.406664,49.85888 135.994813,151.59522 -82.680513,245.7791 -420.278703,328.4015 -370.365803,-2.93988 z m 324.61877,-43.73436 c -24.98214,-112.02215 -206.5119,-62.62445 -264.89598,29.69396 -135.63869,300.72818 245.26851,217.67778 264.89598,-29.69396 z"
         id="path4201" />
    </g>
  </g>
</svg>
